<?xml version="1.0" encoding="iso-8859-1"?>
<!-- Uploaded to: SVG Repo, www.svgrepo.com, Generator: SVG Repo Mixer Tools -->
<svg version="1.1" id="Layer_1" xmlns="http://www.w3.org/2000/svg" xmlns:xlink="http://www.w3.org/1999/xlink" 
	 viewBox="0 0 512 512" xml:space="preserve">
<path d="M384,512H128c-8.448,0-15.36-6.912-15.36-15.36V15.36C112.64,6.912,119.552,0,128,0h256c8.448,0,15.36,6.912,15.36,15.36
	v481.28C399.36,505.088,392.448,512,384,512z"/>
<g>
	<path style="fill:#C9C9C9;" d="M286.72,481.28h-61.44c-2.816,0-5.12-2.304-5.12-5.12l0,0c0-2.816,2.304-5.12,5.12-5.12h61.44
		c2.816,0,5.12,2.304,5.12,5.12l0,0C291.84,478.976,289.536,481.28,286.72,481.28z"/>
	<path style="fill:#C9C9C9;" d="M252.88,25.76h-45.44c-2.816,0-5.12-2.304-5.12-5.12l0,0c0-2.816,2.304-5.12,5.12-5.12h45.44
		c2.816,0,5.12,2.304,5.12,5.12l0,0C258,23.456,255.696,25.76,252.88,25.76z"/>
	<circle style="fill:#C9C9C9;" cx="286.928" cy="20.648" r="5.128"/>
	<circle style="fill:#C9C9C9;" cx="304.56" cy="20.648" r="5.128"/>
</g>
<rect x="128" y="40.96" style="fill:#FFFFFF;" width="256" height="409.6"/>
<rect x="123.16" y="36.312" width="267.544" height="209.44"/>
<path style="fill:#E21B1B;" d="M256.008,98.224c-49.032,0-88.784,39.752-88.784,88.784s39.752,88.784,88.784,88.784
	c49.008,0,88.744-39.712,88.776-88.712h-88.776V98.224z"/>
<path style="fill:#FFFFFF;" d="M334.672,108.408l-62.808,62.808h88.776c0-0.024,0-0.04,0-0.064
	C360.64,146.656,350.712,124.472,334.672,108.408z"/>
<path style="fill:#C9C9C9;" d="M271.864,82.376v88.848l62.808-62.808C318.6,92.328,296.392,82.376,271.864,82.376z"/>
<path d="M163.92,390.192c0-3.392,0.472-7.08,1.4-11.064h11.288v7.824c0,4.544,0.656,7.816,1.976,9.808
	c1.328,1.992,3.496,2.992,6.512,2.992c3.048,0,5.208-1.104,6.48-3.296c1.264-2.2,1.896-5.368,1.896-9.504v-18.44
	c0-2.384-0.2-4.312-0.608-5.784c-0.416-1.48-0.968-2.624-1.68-3.472c-0.704-0.832-1.536-1.408-2.488-1.704
	c-0.952-0.296-1.984-0.448-3.104-0.448c-2.088,0-3.872,0.584-5.368,1.76c-1.488,1.168-2.72,2.576-3.688,4.216h-10.672v-48.72h41.016
	v12.8h-28.944v23.576c1.56-1.792,3.528-3.184,5.896-4.192c2.36-1,4.832-1.504,7.4-1.504c5.92,0,10.264,1.992,13.024,5.976
	c2.752,3.992,4.136,9.856,4.136,17.6v16.2c0,4.92-0.632,9.024-1.896,12.32c-1.264,3.296-2.944,5.944-5.032,7.936
	c-2.088,1.992-4.496,3.416-7.232,4.272c-2.744,0.848-5.56,1.28-8.472,1.28c-3.536,0-6.664-0.48-9.384-1.424
	c-2.72-0.952-5-2.32-6.84-4.112s-3.24-3.936-4.192-6.456C164.4,396.136,163.92,393.312,163.92,390.192z"/>
<path d="M220.296,341.632c0-4.168,0.384-7.776,1.152-10.816c0.76-3.032,1.768-5.584,3.016-7.656c1.24-2.064,2.688-3.736,4.328-5
	c1.64-1.264,3.328-2.24,5.056-2.928c1.736-0.688,3.472-1.152,5.192-1.368c1.736-0.224,3.328-0.336,4.784-0.336
	c1.376,0,2.912,0.104,4.608,0.304c1.696,0.2,3.408,0.632,5.144,1.28c1.728,0.656,3.408,1.6,5.024,2.848
	c1.624,1.248,3.056,2.912,4.304,5s2.256,4.656,3.016,7.712c0.768,3.056,1.152,6.704,1.152,10.952v40.336
	c0,4.168-0.384,7.784-1.152,10.816c-0.76,3.04-1.776,5.616-3.04,7.744c-1.272,2.128-2.728,3.84-4.36,5.168
	c-1.64,1.328-3.32,2.352-5.032,3.08c-1.712,0.728-3.416,1.216-5.112,1.48c-1.696,0.264-3.216,0.392-4.552,0.392
	c-1.496,0-3.112-0.128-4.856-0.392c-1.76-0.256-3.504-0.752-5.256-1.48c-1.752-0.728-3.432-1.744-5.056-3.048
	c-1.616-1.304-3.048-3.016-4.272-5.144s-2.216-4.712-2.96-7.768c-0.744-3.056-1.12-6.672-1.12-10.84v-40.336H220.296z
	 M235.104,388.064c0,3.944,0.72,6.816,2.152,8.6c1.44,1.792,3.624,2.688,6.568,2.688c2.864,0,5.008-0.896,6.424-2.688
	c1.416-1.792,2.128-4.656,2.128-8.6v-51.68c0-4.168-0.712-7.208-2.128-9.112c-1.416-1.904-3.552-2.848-6.424-2.848
	c-2.944,0-5.136,0.952-6.568,2.848c-1.432,1.896-2.152,4.936-2.152,9.112V388.064z"/>
<path d="M293.36,355.488c-1.624,0-3.248-0.232-4.88-0.688c-1.64-0.456-3.12-1.344-4.44-2.664s-2.4-3.192-3.216-5.624
	c-0.832-2.44-1.232-5.624-1.232-9.576v-4.56c0-2.584,0.192-4.832,0.592-6.72s0.944-3.504,1.64-4.832s1.504-2.416,2.416-3.24
	c0.904-0.832,1.872-1.464,2.896-1.92c1.024-0.456,2.064-0.768,3.136-0.936c1.064-0.168,2.112-0.256,3.136-0.256
	c0.968,0,1.976,0.088,3.032,0.232c1.048,0.168,2.08,0.472,3.088,0.92c1.016,0.456,1.968,1.088,2.88,1.896
	c0.904,0.808,1.704,1.88,2.392,3.216c0.68,1.336,1.216,2.952,1.616,4.856s0.592,4.168,0.592,6.784v4.56
	c0,3.896-0.44,7.056-1.32,9.496c-0.88,2.432-2,4.312-3.344,5.648c-1.352,1.336-2.832,2.232-4.44,2.712
	C296.288,355.256,294.784,355.488,293.36,355.488z M293.448,348.704c1.792,0,3.04-0.776,3.752-2.328
	c0.712-1.544,1.064-3.96,1.064-7.224v-8.272c0-3.296-0.352-5.728-1.064-7.288c-0.712-1.568-1.96-2.352-3.752-2.352
	c-1.88,0-3.192,0.784-3.944,2.352c-0.76,1.56-1.136,3.992-1.136,7.288v8.272c0,3.264,0.376,5.68,1.136,7.224
	C290.248,347.936,291.56,348.704,293.448,348.704z M319.2,315.352h7.72L307.344,389h-7.76L319.2,315.352z M319.28,366.528
	c0-3.888,0.44-7.016,1.304-9.36s1.976-4.152,3.328-5.416s2.832-2.104,4.456-2.512c1.624-0.416,3.184-0.616,4.696-0.616
	c0.96,0,1.968,0.08,3.024,0.232s2.088,0.464,3.096,0.912s1.968,1.088,2.872,1.896c0.912,0.816,1.712,1.88,2.392,3.216
	s1.216,2.96,1.616,4.856c0.4,1.904,0.6,4.168,0.6,6.784v4.56c0,2.616-0.208,4.888-0.616,6.832c-0.416,1.928-0.968,3.576-1.664,4.944
	s-1.504,2.488-2.416,3.368c-0.904,0.88-1.864,1.576-2.872,2.096c-1.008,0.504-2.04,0.856-3.096,1.04
	c-1.048,0.184-2.048,0.28-2.984,0.28c-1.08,0-2.168-0.096-3.256-0.28c-1.104-0.176-2.152-0.512-3.16-1
	c-1.016-0.488-1.96-1.168-2.856-2.048s-1.672-2-2.328-3.368c-0.648-1.368-1.168-3.024-1.552-4.968s-0.576-4.24-0.576-6.888v-4.56
	H319.28z M328.024,373.304c0,3.272,0.384,5.68,1.136,7.224c0.752,1.552,2.072,2.328,3.944,2.328c1.792,0,3.04-0.776,3.752-2.328
	c0.712-1.544,1.072-3.952,1.072-7.224v-8.272c0-3.296-0.36-5.728-1.072-7.288s-1.96-2.344-3.752-2.344
	c-1.872,0-3.192,0.784-3.944,2.344s-1.136,3.992-1.136,7.288V373.304z"/>
</svg>