<?xml version="1.0" encoding="iso-8859-1"?>
<!-- Uploaded to: SVG Repo, www.svgrepo.com, Generator: SVG Repo Mixer cryptoTools -->
<svg height="800px" width="800px" version="1.1" id="Layer_1" xmlns="http://www.w3.org/2000/svg" xmlns:xlink="http://www.w3.org/1999/xlink"
	 viewBox="0 0 512 512" xml:space="preserve">
<path style="fill:#FFDB2D;" d="M494.933,488.107H17.067C7.641,488.107,0,480.465,0,471.04V131.982
	c0-9.425,7.641-17.067,17.067-17.067h477.867c9.425,0,17.067,7.641,17.067,17.067V471.04
	C512,480.465,504.359,488.107,494.933,488.107z"/>
<path style="fill:#FF9900;" d="M494.933,114.916H256v373.191h238.933c9.425,0,17.067-7.641,17.067-17.067V131.982
	C512,122.557,504.359,114.916,494.933,114.916z"/>
<path style="fill:#A7A9AC;" d="M512,149.049H0V40.96c0-9.425,7.641-17.067,17.067-17.067h477.867
	c9.425,0,17.067,7.641,17.067,17.067V149.049z"/>
<g>
	<circle style="fill:#FFDB2D;" cx="64.853" cy="86.471" r="11.378"/>
	<circle style="fill:#FFDB2D;" cx="110.364" cy="86.471" r="11.378"/>
	<circle style="fill:#FFDB2D;" cx="155.876" cy="86.471" r="11.378"/>
</g>
<g>
	<path style="fill:#FF9900;" d="M162.702,455.111h-51.2c-9.425,0-17.067-7.641-17.067-17.067V358.4
		c0-9.425,7.641-17.067,17.067-17.067h51.2c9.425,0,17.067,7.641,17.067,17.067v79.644
		C179.769,447.47,172.128,455.111,162.702,455.111z"/>
	<path style="fill:#FF9900;" d="M282.169,456.249h-51.2c-9.425,0-17.067-7.641-17.067-17.067V278.756
		c0-9.425,7.641-17.067,17.067-17.067h51.2c9.425,0,17.067,7.641,17.067,17.067v160.427
		C299.236,448.608,291.594,456.249,282.169,456.249z"/>
</g>
<path style="fill:#FF4F19;" d="M282.169,261.689H256v194.56h26.169c9.425,0,17.067-7.641,17.067-17.067V278.756
	C299.236,269.33,291.594,261.689,282.169,261.689z"/>
<path style="fill:#808285;" d="M512,40.96c0-9.425-7.641-17.067-17.067-17.067H256v125.156h256V40.96z"/>
<path style="fill:#FF4F19;" d="M401.636,455.111h-51.2c-9.425,0-17.067-7.641-17.067-17.067V197.973
	c0-9.425,7.641-17.067,17.067-17.067h51.2c9.425,0,17.067,7.641,17.067,17.067v240.071
	C418.702,447.47,411.061,455.111,401.636,455.111z"/>
</svg>
