<?xml version="1.0" encoding="iso-8859-1"?>
<!-- Uploaded to: SVG Repo, www.svgrepo.com, Generator: SVG Repo Mixer cryptoTools -->
<svg height="800px" width="800px" version="1.1" id="Layer_1" xmlns="http://www.w3.org/2000/svg" xmlns:xlink="http://www.w3.org/1999/xlink"
	 viewBox="0 0 503.467 503.467" xml:space="preserve">
<g transform="translate(3 3)">
	<path style="fill:#80D6FA;" d="M342.6,479.133h68.267V470.6V206.067l1.707-0.853c-17.92-34.987-38.4-67.413-69.973-67.413
		c-34.133,0-52.053,38.4-68.267,76.8l0,0v256v8.533H342.6L342.6,479.133z M137.8,479.133L137.8,479.133H69.533v-4.267v4.267H52.467
		c-18.773,0-34.133-15.36-34.133-34.133V291.4H35.4c14.507,0,24.747-3.413,33.28-9.387l0.853,0.853l-0.853-0.853
		c30.72-22.187,29.013-75.093,69.12-75.947c46.933,0,32.427,70.827,69.12,83.627l-0.853,1.707v179.2v8.533H137.8z M218.013,291.4
		c25.6,0,39.253-38.4,55.467-76.8l0,0v256v8.533h-68.267V470.6V291.4l0.853-1.707C210.333,290.547,213.747,291.4,218.013,291.4z
		 M479.133,291.4V445c0,18.773-15.36,34.133-34.133,34.133h-34.133V470.6V206.067l1.707-0.853
		C433.907,246.173,450.973,291.4,479.133,291.4z"/>
	<path style="fill:#E4F2DE;" d="M479.133,52.467V291.4c-28.16,0-45.227-45.227-66.56-86.187
		c-17.92-34.987-38.4-67.413-69.973-67.413c-34.133,0-52.053,38.4-68.267,76.8s-29.867,76.8-55.467,76.8
		c-4.267,0-8.533-0.853-11.947-1.707c-36.693-11.947-22.187-83.627-69.12-83.627c-40.107,0-38.4,52.907-69.12,75.947
		c-8.533,5.973-18.773,9.387-33.28,9.387H18.333V52.467c0-18.773,15.36-34.133,34.133-34.133H445
		C463.773,18.333,479.133,33.693,479.133,52.467"/>
</g>
<path style="fill:#51565F;" d="M448,486.4H55.467c-21.333,0-38.4-17.067-38.4-38.4V328.533c0-2.56,1.707-4.267,4.267-4.267
	s4.267,1.707,4.267,4.267V448c0,16.213,13.653,29.867,29.867,29.867h17.067c-2.56,0-4.267-1.707-4.267-4.267V328.533
	c0-2.56,1.707-4.267,4.267-4.267c2.56,0,4.267,1.707,4.267,4.267V473.6c0,2.56-1.707,4.267-4.267,4.267H140.8
	c-2.56,0-4.267-1.707-4.267-4.267V251.733c0-2.56,1.707-4.267,4.267-4.267c2.56,0,4.267,1.707,4.267,4.267V473.6
	c0,2.56-1.707,4.267-4.267,4.267h68.267c-2.56,0-4.267-1.707-4.267-4.267V328.533c0-2.56,1.707-4.267,4.267-4.267
	s4.267,1.707,4.267,4.267V473.6c0,2.56-1.707,4.267-4.267,4.267h68.267c-2.56,0-4.267-1.707-4.267-4.267V320
	c0-2.56,1.707-4.267,4.267-4.267S281.6,317.44,281.6,320v153.6c0,2.56-1.707,4.267-4.267,4.267H345.6
	c-2.56,0-4.267-1.707-4.267-4.267V183.467c0-2.56,1.707-4.267,4.267-4.267s4.267,1.707,4.267,4.267V473.6
	c0,2.56-1.707,4.267-4.267,4.267h68.267c-2.56,0-4.267-1.707-4.267-4.267V302.933c0-2.56,1.707-4.267,4.267-4.267
	s4.267,1.707,4.267,4.267V473.6c0,2.56-1.707,4.267-4.267,4.267H448c16.213,0,29.867-13.653,29.867-29.867V298.667
	c-23.893-3.413-40.107-35.84-57.173-70.827c-20.48-40.96-40.96-82.773-75.093-82.773s-51.2,41.813-68.267,82.773
	c-15.36,36.693-29.867,70.827-56.32,70.827H217.6c-0.853,0-0.853,0-1.707,0c-24.747-2.56-32.427-25.6-39.253-45.227
	c-7.68-21.333-13.653-40.107-35.84-40.107c-21.333,0-29.013,16.213-38.4,35.84c-11.093,23.04-24.747,49.493-64,49.493H4.267
	C1.707,298.667,0,296.96,0,294.4c0-2.56,1.707-4.267,4.267-4.267h12.8V55.467c0-21.333,17.067-38.4,38.4-38.4H448
	c21.333,0,38.4,17.067,38.4,38.4v204.8c0,2.56-1.707,4.267-4.267,4.267s-4.267-1.707-4.267-4.267v-204.8
	c0-16.213-13.653-29.867-29.867-29.867H55.467C39.253,25.6,25.6,39.253,25.6,55.467v234.667h12.8
	c34.133,0,45.227-23.04,56.32-45.227c9.387-19.627,19.627-40.107,46.08-40.107c29.013,0,36.693,23.893,44.373,45.227
	c7.68,21.333,13.653,40.107,35.84,40.107c21.333,0,34.133-32.427,48.64-65.707c17.067-40.96,36.693-87.893,75.947-87.893
	c39.253,0,62.293,46.08,82.773,87.04c17.067,34.133,32.427,66.56,53.76,66.56H499.2c2.56,0,4.267,1.707,4.267,4.267
	c0,2.56-1.707,4.267-4.267,4.267h-12.8V448C486.4,469.333,469.333,486.4,448,486.4z"/>
</svg>
