<?xml version="1.0" encoding="iso-8859-1"?>
<!-- Uploaded to: SVG Repo, www.svgrepo.com, Generator: SVG Repo Mixer Tools -->
<svg version="1.1" id="Layer_1" xmlns="http://www.w3.org/2000/svg" xmlns:xlink="http://www.w3.org/1999/xlink" 
	 viewBox="0 0 512 512" xml:space="preserve">
<g>
	<rect x="65.419" y="24.312" style="fill:#F2BF7E;" width="31.931" height="55.88"/>
	<rect x="336.831" y="104.138" style="fill:#F2BF7E;" width="31.931" height="55.88"/>
	<rect x="440.603" y="183.964" style="fill:#F2BF7E;" width="63.862" height="55.88"/>
	<rect x="384.733" y="263.79" style="fill:#F2BF7E;" width="63.862" height="55.88"/>
	<rect x="137.266" y="343.616" style="fill:#F2BF7E;" width="31.931" height="55.88"/>
	<rect x="9.538" y="423.452" style="fill:#F2BF7E;" width="47.897" height="55.88"/>
</g>
<g>
	<rect x="97.353" y="24.312" style="fill:#FFFFFF;" width="63.862" height="55.88"/>
	<rect x="304.897" y="104.138" style="fill:#FFFFFF;" width="31.931" height="55.88"/>
	<rect x="392.711" y="183.964" style="fill:#FFFFFF;" width="47.897" height="55.88"/>
	<rect x="336.831" y="263.79" style="fill:#FFFFFF;" width="47.897" height="55.88"/>
	<rect x="169.19" y="343.616" style="fill:#FFFFFF;" width="39.913" height="55.88"/>
	<rect x="57.435" y="423.452" style="fill:#FFFFFF;" width="31.931" height="55.88"/>
</g>
<g>
	<rect x="161.212" y="24.312" style="fill:#D4E4AC;" width="95.793" height="55.88"/>
	<rect x="257.005" y="104.138" style="fill:#D4E4AC;" width="47.897" height="55.88"/>
	<rect x="257.005" y="183.964" style="fill:#D4E4AC;" width="135.706" height="55.88"/>
	<rect x="257.005" y="263.79" style="fill:#D4E4AC;" width="79.826" height="55.88"/>
	<rect x="209.103" y="343.616" style="fill:#D4E4AC;" width="47.897" height="55.88"/>
	<rect x="89.364" y="423.452" style="fill:#D4E4AC;" width="167.641" height="55.88"/>
</g>
<rect x="250.241" width="15.706" height="512"/>
<path d="M240.818,31.411V15.706H57.587v72.245h183.231V72.245h-72.245V31.411H240.818z M73.292,31.411h14.658v40.834H73.292V31.411z
	 M152.867,72.245h-49.211V31.411h49.211V72.245z"/>
<path d="M273.276,98.421v15.706h23.035v37.693h-23.035v15.706h102.609V98.421H273.276z M312.016,114.127h16.753v37.693h-16.753
	V114.127z M360.18,151.82h-15.706v-37.693h15.706V151.82z"/>
<path d="M273.276,176.949v15.706h112.033v39.787H273.276v15.706h237.677v-71.198H273.276z M401.014,192.654h31.411v39.787h-31.411
	V192.654z M495.247,232.442h-47.117v-39.787h47.117V232.442z"/>
<path d="M273.276,256.523v15.706h55.493v39.787h-55.493v15.706h183.231v-71.198H273.276z M344.474,272.229h33.505v39.787h-33.505
	V272.229z M440.802,312.016h-47.117v-39.787h47.117V312.016z"/>
<path d="M240.818,351.804v-15.706H128.785v71.198h112.033v-15.706h-23.035v-39.787H240.818z M144.491,351.804h16.753v39.787h-16.753
	V351.804z M202.078,391.591h-25.129v-39.787h25.129V391.591z"/>
<path d="M240.818,431.378v-15.706H0v71.198h240.818v-15.706H97.374v-39.787H240.818z M15.706,431.378h34.552v39.787H15.706V431.378z
	 M81.669,471.166H65.963v-39.787h15.706V471.166z"/>
<rect x="425.096" y="448.131" style="fill:#E2804F;" width="15.706" height="15.706"/>
<rect x="456.507" y="448.131" style="fill:#F2BF7E;" width="55.493" height="15.706"/>
<rect x="425.096" y="471.166" style="fill:#D4E4AC;" width="15.706" height="15.706"/>
<rect x="448.131" y="471.166" style="fill:#E2804F;" width="16.753" height="15.706"/>
<rect x="472.213" y="471.166" style="fill:#F2BF7E;" width="16.753" height="15.706"/>
<rect x="495.247" y="471.166" style="fill:#D4E4AC;" width="16.753" height="15.706"/>
<rect x="425.096" y="495.247" style="fill:#F2BF7E;" width="31.411" height="15.706"/>
<rect x="464.883" y="495.247" style="fill:#E2804F;" width="47.117" height="15.706"/>
</svg>