<?xml version="1.0" encoding="iso-8859-1"?>
<!-- Uploaded to: SVG Repo, www.svgrepo.com, Generator: SVG Repo Mixer Tools -->
<svg version="1.1" id="Layer_1" xmlns="http://www.w3.org/2000/svg" xmlns:xlink="http://www.w3.org/1999/xlink" 
	 viewBox="0 0 512 512" xml:space="preserve">
<path style="fill:#25B6D2;" d="M480,440.496H32c-17.6,0-32-14.4-32-32V138.64c0-17.6,14.4-32,32-32h448c17.6,0,32,14.4,32,32
	v269.856C512,426.096,497.6,440.496,480,440.496z"/>
<ellipse style="fill:#FFFFFF;" cx="300.144" cy="264.784" rx="105.936" ry="105.424"/>
<ellipse cx="300.144" cy="264.784" rx="70.624" ry="70.288"/>
<ellipse style="fill:#E04F5F;" cx="271.472" cy="226.192" rx="22.368" ry="22.272"/>
<path style="fill:#25B6D2;" d="M247.168,118.72v-12.08c0-19.328,15.888-35.136,35.312-35.136h123.584
	c19.424,0,35.312,15.808,35.312,35.136v12.864"/>
<g>
	<rect y="186.496" style="fill:#FFFFFF;" width="240" height="16"/>
	<rect x="362.928" y="186.496" style="fill:#FFFFFF;" width="149.072" height="16"/>
	<rect x="97.936" y="194.496" style="fill:#FFFFFF;" width="16" height="246"/>
</g>
</svg>