<?xml version="1.0" encoding="iso-8859-1"?>
<!-- Uploaded to: SVG Repo, www.svgrepo.com, Generator: SVG Repo Mixer Tools -->
<svg height="800px" width="800px" version="1.1" id="Layer_1" xmlns="http://www.w3.org/2000/svg" xmlns:xlink="http://www.w3.org/1999/xlink" 
	 viewBox="0 0 511.816 511.816" xml:space="preserve">
<path style="fill:#E21B1B;" d="M511.644,255.808c0-0.064-0.008-0.12-0.008-0.184h-0.008c-0.104-70.496-28.688-134.312-74.88-180.552
	C390.412,28.688,326.38,0,255.636,0v255.624v0.56v255.624c70.736,0,134.776-28.696,181.112-75.072
	c46.192-46.24,74.776-110.056,74.88-180.552h0.008c0-0.064,0.008-0.12,0.008-0.184c0-0.032,0-0.064,0-0.096
	C511.644,255.872,511.644,255.84,511.644,255.808z"/>
<path style="fill:#E2E2E2;" d="M75.068,75.08C28.876,121.32,0.292,185.136,0.188,255.632H0.18c0,0.064-0.008,0.12-0.008,0.184
	c0,0.032,0,0.064,0,0.096c0,0.032,0,0.064,0,0.096c0,0.064,0.008,0.12,0.008,0.184h0.008c0.104,70.496,28.688,134.312,74.88,180.552
	c46.336,46.384,110.368,75.072,181.112,75.072V256.184v-0.56V0C185.436,0,121.396,28.696,75.068,75.08z"/>
<g>
	<circle style="fill:#FFFFFF;" cx="372.78" cy="162.032" r="18.28"/>
	<path style="fill:#FFFFFF;" d="M393.188,187.624h-40.816c-14.392,0-26.104,11.712-26.104,26.104v51.192
		c0,5.24,4.248,9.496,9.496,9.496s9.496-4.248,9.496-9.496v-45.912h5.696v43.288c0,0.024-0.008,0.04-0.008,0.064v96.784
		c0,5.24,4.248,9.496,9.496,9.496c5.24,0,9.496-4.248,9.496-9.496V281.28h5.696v77.864c0,5.24,4.248,9.496,9.496,9.496
		c5.24,0,9.496-4.248,9.496-9.496V281.28v-18.928v-43.344h5.696v45.912c0,5.24,4.248,9.496,9.496,9.496
		c5.24,0,9.496-4.248,9.496-9.496v-51.192C419.292,199.336,407.58,187.624,393.188,187.624z"/>
</g>
<circle cx="139.036" cy="162.032" r="18.28"/>
<path d="M159.444,187.624h-40.816c-14.392,0-26.104,11.712-26.104,26.104v51.192c0,5.24,4.248,9.496,9.496,9.496
	s9.496-4.248,9.496-9.496v-45.912h5.696v43.288c0,0.024-0.008,0.04-0.008,0.064v96.784c0,5.24,4.248,9.496,9.496,9.496
	c5.24,0,9.496-4.248,9.496-9.496V281.28h5.696v77.864c0,5.24,4.248,9.496,9.496,9.496c5.24,0,9.496-4.248,9.496-9.496V281.28
	v-18.928v-43.344h5.696v45.912c0,5.24,4.248,9.496,9.496,9.496s9.496-4.248,9.496-9.496v-51.192
	C185.548,199.336,173.836,187.624,159.444,187.624z"/>
</svg>