<?xml version="1.0" encoding="iso-8859-1"?>
<!-- Uploaded to: SVG Repo, www.svgrepo.com, Generator: SVG Repo Mixer Tools -->
<svg version="1.1" id="Layer_1" xmlns="http://www.w3.org/2000/svg" xmlns:xlink="http://www.w3.org/1999/xlink" 
	 viewBox="0 0 512 512" xml:space="preserve">
<path style="fill:#F1F4FB;" d="M494.345,459.034H17.655C7.904,459.034,0,451.13,0,441.379V70.621
	c0-9.751,7.904-17.655,17.655-17.655h476.69c9.751,0,17.655,7.904,17.655,17.655v370.759
	C512,451.13,504.096,459.034,494.345,459.034z"/>
<rect x="97.103" y="229.517" style="fill:#FFFFFF;" width="17.655" height="194.207"/>
<rect x="97.103" y="291.31" style="fill:#D5DCED;" width="17.655" height="132.414"/>
<rect x="150.069" y="132.414" style="fill:#FFFFFF;" width="17.655" height="291.31"/>
<rect x="150.069" y="335.448" style="fill:#D5DCED;" width="17.655" height="88.276"/>
<rect x="203.034" y="229.517" style="fill:#FFFFFF;" width="17.655" height="194.207"/>
<rect x="203.034" y="335.448" style="fill:#D5DCED;" width="17.655" height="88.276"/>
<rect x="256" y="185.379" style="fill:#FFFFFF;" width="17.655" height="238.345"/>
<rect x="256" y="291.31" style="fill:#D5DCED;" width="17.655" height="132.414"/>
<rect x="361.931" y="282.483" style="fill:#FFFFFF;" width="17.655" height="141.241"/>
<rect x="361.931" y="335.448" style="fill:#D5DCED;" width="17.655" height="88.276"/>
<rect x="414.897" y="132.414" style="fill:#FFFFFF;" width="17.655" height="291.31"/>
<rect x="414.897" y="282.483" style="fill:#D5DCED;" width="17.655" height="141.241"/>
<rect x="308.966" y="229.517" style="fill:#FFFFFF;" width="17.655" height="194.207"/>
<rect x="308.966" y="379.586" style="fill:#D5DCED;" width="17.655" height="44.138"/>
<path style="fill:#FF6464;" d="M484.586,225.569L431.62,119.638c-1.655-3.302-5.121-5.241-8.862-4.828
	c-3.672,0.405-6.698,3.052-7.595,6.638l-52.38,209.483l-42.569,42.578l-47.491-94.974c-1.267-2.535-3.681-4.31-6.483-4.767
	c-2.854-0.474-5.664,0.466-7.656,2.474l-41.94,41.94l-49.19-196.733c-0.897-3.586-3.923-6.232-7.595-6.638
	c-3.742-0.405-7.207,1.526-8.862,4.828l-47.491,94.974l-61.956-61.956L29.068,165.14l70.621,70.621
	c2.001,2.008,4.819,2.957,7.656,2.474c2.802-0.457,5.216-2.232,6.483-4.767l42.293-84.586l47.181,188.707
	c0.767,3.086,3.138,5.517,6.207,6.37c3.052,0.853,6.336-0.018,8.595-2.268l44.301-44.301l47.491,94.974
	c1.267,2.535,3.681,4.31,6.483,4.767c0.474,0.077,0.948,0.113,1.414,0.113c2.319,0,4.577-0.914,6.241-2.586l52.966-52.966
	c1.129-1.129,1.931-2.552,2.319-4.104l47.181-188.707l42.293,84.586c2.189,4.362,7.482,6.121,11.844,3.948
	C485,235.233,486.767,229.931,484.586,225.569z"/>
<path style="fill:#9BF57D;" d="M482.931,329.207l-52.966-52.966c-1.655-1.655-3.896-2.586-6.241-2.586h-49.311L271.069,170.311
	c-3.448-3.448-9.035-3.448-12.483,0l-52.966,52.966c-0.672,0.672-1.233,1.449-1.655,2.293l-47.491,94.974l-44.301-44.301
	c-3.448-3.448-9.035-3.448-12.483,0l-70.621,70.621l12.483,12.483l64.38-64.38l46.724,46.724c2.001,2.008,4.836,2.94,7.656,2.474
	c2.802-0.457,5.216-2.232,6.483-4.767l52.328-104.647l45.706-45.716l99.69,99.69c1.655,1.655,3.896,2.586,6.241,2.586h49.311
	l50.379,50.379c3.448,3.448,9.035,3.448,12.483,0C486.38,338.242,486.379,332.655,482.931,329.207z"/>
<path style="fill:#AFB9D2;" d="M476.69,432.552H35.31c-4.879,0-8.828-3.948-8.828-8.828V88.276c0-4.879,3.948-8.828,8.828-8.828
	s8.828,3.948,8.828,8.828v326.621H476.69c4.879,0,8.828,3.948,8.828,8.828C485.517,428.604,481.569,432.552,476.69,432.552z"/>
<g>
	<circle style="fill:#7DC86E;" cx="105.931" cy="282.483" r="8.828"/>
	<circle style="fill:#7DC86E;" cx="264.828" cy="176.552" r="8.828"/>
	<circle style="fill:#7DC86E;" cx="158.897" cy="335.448" r="8.828"/>
	<circle style="fill:#7DC86E;" cx="211.862" cy="229.517" r="8.828"/>
</g>
<g>
	<circle style="fill:#C84146;" cx="105.931" cy="229.517" r="8.828"/>
	<circle style="fill:#C84146;" cx="317.793" cy="388.414" r="8.828"/>
	<circle style="fill:#C84146;" cx="211.862" cy="335.448" r="8.828"/>
	<circle style="fill:#C84146;" cx="158.897" cy="123.586" r="8.828"/>
	<circle style="fill:#C84146;" cx="264.828" cy="282.483" r="8.828"/>
	<circle style="fill:#C84146;" cx="423.724" cy="123.586" r="8.828"/>
	<circle style="fill:#C84146;" cx="370.759" cy="335.448" r="8.828"/>
</g>
<g>
	<circle style="fill:#7DC86E;" cx="370.759" cy="282.483" r="8.828"/>
	<circle style="fill:#7DC86E;" cx="317.793" cy="229.517" r="8.828"/>
	<circle style="fill:#7DC86E;" cx="423.724" cy="282.483" r="8.828"/>
</g>
</svg>