<?xml version="1.0" encoding="iso-8859-1"?>
<!-- Uploaded to: SVG Repo, www.svgrepo.com, Generator: SVG Repo Mixer cryptoTools -->
<svg height="800px" width="800px" version="1.1" id="Layer_1" xmlns="http://www.w3.org/2000/svg" xmlns:xlink="http://www.w3.org/1999/xlink"
	 viewBox="0 0 511.928 511.928" xml:space="preserve">
<path d="M99.04,118.736L145.208,1.384h28.64v111.144h14.648v18.816h-14.648v28.368h-22.336v-28.368H99.04
	C99.04,131.344,99.04,118.736,99.04,118.736z M151.512,112.52V89.16l2.216-59.696h-2.784l-27.44,83.056H151.512z"/>
<path d="M203.224,46.616c0-6.92,0.632-12.896,1.896-17.936s2.936-9.272,5.008-12.704s4.464-6.192,7.176-8.296
	c2.72-2.096,5.512-3.72,8.392-4.856c2.872-1.152,5.752-1.904,8.624-2.272C237.184,0.176,239.824,0,242.24,0
	c2.288,0,4.832,0.168,7.648,0.504c2.816,0.344,5.656,1.056,8.52,2.136c2.872,1.08,5.656,2.656,8.344,4.728s5.072,4.832,7.144,8.296
	s3.736,7.728,5.008,12.792c1.264,5.072,1.896,11.128,1.896,18.168v66.92c0,6.92-0.632,12.904-1.896,17.936
	c-1.272,5.04-2.952,9.32-5.056,12.832c-2.104,3.52-4.512,6.384-7.232,8.576s-5.504,3.888-8.336,5.096
	c-2.84,1.208-5.672,2.024-8.488,2.464c-2.816,0.432-5.328,0.648-7.552,0.648c-2.48,0-5.168-0.216-8.064-0.648
	c-2.904-0.44-5.816-1.248-8.72-2.464c-2.896-1.2-5.696-2.88-8.384-5.048s-5.056-5.008-7.096-8.528s-3.68-7.816-4.912-12.88
	c-1.232-5.064-1.848-11.064-1.848-17.984V46.616H203.224z M227.792,123.648c0,6.544,1.184,11.304,3.568,14.272
	c2.376,2.96,6.008,4.448,10.888,4.448c4.76,0,8.312-1.488,10.656-4.448c2.352-2.968,3.52-7.728,3.52-14.272V37.896
	c0-6.912-1.168-11.952-3.52-15.112c-2.344-3.152-5.896-4.728-10.656-4.728c-4.88,0-8.512,1.576-10.888,4.728
	c-2.384,3.16-3.568,8.192-3.568,15.112V123.648z"/>
<path d="M324.44,69.592c-2.688,0-5.392-0.376-8.104-1.136c-2.712-0.752-5.168-2.224-7.36-4.424
	c-2.192-2.192-3.976-5.304-5.344-9.336s-2.048-9.328-2.048-15.88v-7.568c0-4.296,0.328-8.008,0.992-11.152
	c0.656-3.136,1.56-5.816,2.72-8.024c1.16-2.216,2.496-4.016,4-5.384s3.112-2.432,4.816-3.176c1.696-0.76,3.432-1.272,5.192-1.552
	c1.776-0.288,3.504-0.432,5.2-0.432c1.6,0,3.272,0.136,5.024,0.392c1.744,0.256,3.456,0.768,5.128,1.52
	c1.68,0.752,3.264,1.808,4.784,3.152c1.504,1.344,2.832,3.128,3.96,5.336c1.136,2.216,2.024,4.904,2.688,8.072
	c0.656,3.16,0.992,6.904,0.992,11.248v7.568c0,6.464-0.736,11.704-2.192,15.744c-1.464,4.032-3.312,7.16-5.552,9.376
	c-2.24,2.208-4.696,3.712-7.36,4.496C329.304,69.2,326.8,69.592,324.44,69.592z M324.576,58.344c2.968,0,5.048-1.28,6.224-3.848
	s1.768-6.568,1.768-11.992V28.776c0-5.48-0.584-9.504-1.768-12.104s-3.256-3.888-6.224-3.888c-3.12,0-5.296,1.296-6.544,3.888
	s-1.872,6.624-1.872,12.104v13.728c0,5.424,0.624,9.424,1.872,11.992S321.464,58.344,324.576,58.344z M367.312,3.016h12.808
	L347.64,125.2h-12.872L367.312,3.016z M367.456,87.92c0-6.472,0.72-11.64,2.16-15.528s3.28-6.888,5.512-8.984
	c2.24-2.104,4.712-3.496,7.4-4.176s5.28-1.024,7.784-1.024c1.6,0,3.272,0.136,5.024,0.392c1.744,0.256,3.456,0.768,5.128,1.52
	c1.68,0.752,3.264,1.8,4.784,3.152c1.504,1.344,2.832,3.128,3.96,5.336c1.136,2.216,2.024,4.904,2.688,8.072
	c0.656,3.16,0.992,6.904,0.992,11.248v7.568c0,4.336-0.344,8.112-1.032,11.312c-0.68,3.208-1.6,5.944-2.76,8.208
	s-2.488,4.128-3.992,5.584c-1.512,1.472-3.104,2.616-4.784,3.472c-1.672,0.848-3.384,1.432-5.128,1.736
	c-1.752,0.304-3.4,0.464-4.952,0.464c-1.8,0-3.6-0.16-5.416-0.464s-3.56-0.856-5.232-1.664c-1.672-0.8-3.256-1.928-4.744-3.4
	c-1.488-1.464-2.776-3.32-3.848-5.584c-1.088-2.264-1.944-5.008-2.584-8.24c-0.632-3.224-0.952-7.04-0.952-11.424V87.92H367.456z
	 M381.952,99.168c0,5.432,0.624,9.424,1.872,11.992c1.248,2.576,3.432,3.856,6.544,3.856c2.968,0,5.048-1.28,6.224-3.856
	c1.176-2.568,1.768-6.56,1.768-11.992v-13.72c0-5.48-0.584-9.504-1.768-12.104s-3.256-3.888-6.224-3.888
	c-3.12,0-5.296,1.296-6.544,3.888s-1.872,6.624-1.872,12.104V99.168z"/>
<polygon style="fill:#FFFFFF;" points="173.792,503.928 173.792,380.864 116.056,380.864 249.248,218.8 382.448,380.864
	324.712,380.864 324.712,503.928 "/>
<path style="fill:#E21B1B;" d="M249.248,231.4l116.264,141.472h-32.808h-16v16v107.064h-134.92V388.864v-16h-16h-32.808
	L249.248,231.4 M249.248,206.2L99.12,388.864h66.664v123.064h166.92V388.864h66.664L249.248,206.2L249.248,206.2z"/>
</svg>
