<?xml version="1.0" encoding="utf-8"?><!-- Uploaded to: SVG Repo, www.svgrepo.com, Generator: SVG Repo Mixer Tools -->
<svg fill="#000000" width="800px" height="800px" viewBox="0 0 24 24" id="database-error" data-name="Flat Color" xmlns="http://www.w3.org/2000/svg" class="icon flat-color"><path id="secondary" d="M22.5,20.5A1.5,1.5,0,1,1,21,19,1.5,1.5,0,0,1,22.5,20.5ZM22,16V13a1,1,0,0,0-2,0v3a1,1,0,0,0,2,0Z" style="fill: rgb(44, 169, 188);"></path><path id="primary" d="M22,8a2,2,0,0,1-.28,1,1.84,1.84,0,0,1,.26.8,1.23,1.23,0,0,1,0,.2,1,1,0,0,1-1,1H19a1,1,0,0,0-1,1v9a1,1,0,0,1-1,1H4a2,2,0,0,1-2-2V16a2,2,0,0,1,.28-1A2,2,0,0,1,2,14V10a2,2,0,0,1,.28-1A2,2,0,0,1,2,8V4A2,2,0,0,1,4,2H20a2,2,0,0,1,2,2Z" style="fill: rgb(0, 0, 0);"></path></svg>