<?xml version="1.0" encoding="iso-8859-1"?>
<!-- Uploaded to: SVG Repo, www.svgrepo.com, Generator: SVG Repo Mixer cryptoTools -->
<svg height="800px" width="800px" version="1.1" id="Layer_1" xmlns="http://www.w3.org/2000/svg" xmlns:xlink="http://www.w3.org/1999/xlink"
	 viewBox="0 0 512 512" xml:space="preserve">
<circle style="fill:#E04F5F;" cx="255.984" cy="256" r="77.936"/>
<path d="M512,294.368v-76.752l-78.112-7.808c-4.464-16.432-11.312-31.888-20.048-46.032l50.368-61.568l-54.272-54.272l-64.032,52.4
	c-13.392-7.056-27.776-12.48-42.944-15.888l-8.432-84.304H256.16h-0.32h-38.368l-8.432,84.304
	c-15.152,3.424-29.552,8.848-42.944,15.888l-64.032-52.4l-54.272,54.272l50.368,61.568c-8.736,14.16-15.568,29.6-20.048,46.032
	L0,217.616v76.752l78.224,7.824c4.496,16.384,11.248,31.84,19.968,45.968l-50.416,61.616l54.272,54.272l64.032-52.384
	c13.392,7.056,27.792,12.464,42.96,15.888l8.432,84.304h38.368h0.32h38.368l8.432-84.304c15.152-3.424,29.552-8.832,42.96-15.888
	l64.032,52.384l54.272-54.272l-50.416-61.616c8.736-14.128,15.472-29.584,19.968-45.968L512,294.368z M255.984,371.456
	c-63.76,0-115.456-51.696-115.456-115.456s51.696-115.456,115.456-115.456S371.44,192.24,371.44,256
	C371.44,319.76,319.76,371.456,255.984,371.456z"/>
</svg>
