<?xml version="1.0" encoding="iso-8859-1"?>
<!-- Uploaded to: SVG Repo, www.svgrepo.com, Generator: SVG Repo Mixer Tools -->
<svg height="800px" width="800px" version="1.1" id="Layer_1" xmlns="http://www.w3.org/2000/svg" xmlns:xlink="http://www.w3.org/1999/xlink" 
	 viewBox="0 0 512.002 512.002" xml:space="preserve">
<g>
	<circle style="fill:#FFDB56;" cx="255.904" cy="110.808" r="26.564"/>
	<circle style="fill:#FFDB56;" cx="255.904" cy="398.616" r="26.564"/>
	<circle style="fill:#FFDB56;" cx="132.625" cy="180.472" r="26.564"/>
	<circle style="fill:#FFDB56;" cx="379.172" cy="328.952" r="26.564"/>
	<circle style="fill:#FFDB56;" cx="420.692" cy="161.479" r="26.564"/>
	<circle style="fill:#FFDB56;" cx="132.053" cy="327.982" r="26.564"/>
</g>
<path style="fill:#E93233;" d="M397.831,175.005c-4.216-7.126-4.72-15.419-2.09-22.636l-113.666-37.052
	c-2.142,12.523-13.041,22.058-26.176,22.058c-11.047,0-20.518-6.745-24.523-16.342l-76.87,44.381
	c5.72,8.321,6.424,19.551,0.875,28.765c-6.057,10.057-17.719,14.654-28.578,12.214v95.552c10.769-2.169,22.198,2.527,28.108,12.515
	c5.945,10.047,4.506,22.409-2.689,30.807l78.375,45.25c3.426-10.71,13.456-18.465,25.303-18.465
	c11.883,0,21.939,7.802,25.335,18.562l77.472-44.728c-6.99-8.449-8.266-20.713-2.288-30.638c7.14-11.856,22.07-16.129,34.289-10.222
	l25.302-117.406C408.671,186.3,401.925,181.925,397.831,175.005z"/>
<g>
	<path style="fill:#B32426;" d="M397.831,175.004c-4.216-7.126-4.72-15.419-2.09-22.636l-5.247-1.711l-34.076,164.589
		c7.14-11.856,22.07-16.129,34.289-10.222l25.302-117.406C408.671,186.3,401.925,181.925,397.831,175.004z"/>
	<path style="fill:#B32426;" d="M281.235,390.614l77.472-44.728c-6.99-8.449-8.266-20.713-2.288-30.638l-87.258,60.37
		C274.853,378.907,279.222,384.232,281.235,390.614z"/>
</g>
<path d="M477.719,383.968c0.007-0.011,0.014-0.019,0.019-0.029c0.153-0.271,0.285-0.548,0.404-0.828
	c0.027-0.064,0.048-0.13,0.074-0.195c0.096-0.243,0.18-0.486,0.25-0.733c0.023-0.079,0.044-0.158,0.065-0.238
	c0.068-0.269,0.123-0.539,0.163-0.811c0.008-0.047,0.017-0.095,0.024-0.142c0.042-0.33,0.065-0.66,0.066-0.99
	c0-0.014,0.003-0.029,0.003-0.043V132.043c0-0.032-0.006-0.063-0.006-0.094c-0.007-0.646-0.092-1.292-0.257-1.929
	c-0.019-0.075-0.043-0.15-0.065-0.224c-0.068-0.235-0.148-0.468-0.239-0.7c-0.033-0.085-0.066-0.17-0.101-0.253
	c-0.105-0.241-0.222-0.479-0.352-0.714c-0.028-0.051-0.051-0.102-0.08-0.152c-0.007-0.012-0.012-0.024-0.018-0.036
	c-0.158-0.268-0.332-0.522-0.515-0.765c-0.041-0.054-0.086-0.105-0.128-0.157c-0.164-0.207-0.335-0.403-0.515-0.59
	c-0.055-0.057-0.111-0.113-0.168-0.169c-0.203-0.197-0.413-0.384-0.633-0.557c-0.035-0.027-0.066-0.056-0.1-0.082
	c-0.266-0.203-0.543-0.388-0.83-0.555c-0.012-0.006-0.022-0.016-0.033-0.023L260.044,1.085c-0.02-0.012-0.042-0.019-0.061-0.03
	c-0.287-0.163-0.583-0.312-0.89-0.439c-0.018-0.008-0.038-0.013-0.056-0.02c-0.278-0.112-0.564-0.207-0.856-0.289
	c-0.08-0.023-0.158-0.042-0.238-0.061c-0.24-0.059-0.484-0.107-0.731-0.144c-0.082-0.013-0.164-0.028-0.246-0.038
	C256.646,0.025,256.327,0,256.001,0s-0.647,0.025-0.963,0.063c-0.082,0.01-0.164,0.025-0.246,0.038
	c-0.248,0.038-0.492,0.085-0.732,0.144c-0.08,0.019-0.158,0.039-0.238,0.061c-0.292,0.082-0.579,0.177-0.857,0.289
	c-0.018,0.008-0.037,0.013-0.055,0.02c-0.308,0.127-0.604,0.276-0.891,0.439c-0.02,0.012-0.042,0.018-0.061,0.03L123.932,75
	c-3.866,2.232-5.191,7.177-2.959,11.043c2.233,3.867,7.178,5.193,11.043,2.959l115.901-66.916v55.015
	c-15.267,3.616-26.665,17.352-26.665,33.71c0,2.183,0.212,4.316,0.6,6.388l-65.638,37.897c-1.719-1.597-3.625-3.044-5.713-4.301
	c-7.928-4.775-17.24-6.176-26.223-3.946c-7.96,1.977-14.812,6.6-19.593,13.144l-47.338-27.879l46.249-26.702
	c3.866-2.232,5.191-7.177,2.959-11.043c-2.233-3.866-7.178-5.191-11.043-2.959l-58.255,33.634c-0.013,0.008-0.024,0.017-0.037,0.024
	c-0.285,0.166-0.561,0.35-0.825,0.552c-0.038,0.029-0.072,0.06-0.109,0.089c-0.217,0.171-0.424,0.355-0.623,0.549
	c-0.059,0.057-0.116,0.115-0.174,0.174c-0.179,0.185-0.348,0.38-0.51,0.584c-0.043,0.054-0.089,0.106-0.132,0.161
	c-0.183,0.244-0.357,0.496-0.515,0.764c-0.006,0.012-0.012,0.024-0.018,0.036c-0.029,0.05-0.052,0.102-0.08,0.152
	c-0.13,0.235-0.248,0.472-0.352,0.714c-0.037,0.084-0.068,0.169-0.101,0.253c-0.091,0.231-0.17,0.464-0.239,0.7
	c-0.022,0.075-0.045,0.149-0.065,0.224c-0.165,0.638-0.249,1.285-0.257,1.929c0,0.031-0.006,0.063-0.006,0.094v247.916
	c0,0.014,0.003,0.028,0.003,0.043c0.001,0.33,0.024,0.661,0.066,0.991c0.006,0.047,0.016,0.093,0.023,0.14
	c0.04,0.273,0.095,0.543,0.164,0.814c0.02,0.08,0.041,0.158,0.064,0.237c0.071,0.247,0.155,0.493,0.251,0.735
	c0.025,0.064,0.046,0.129,0.073,0.193c0.119,0.28,0.251,0.557,0.404,0.828c0.005,0.011,0.014,0.019,0.019,0.03
	c0.139,0.244,0.3,0.475,0.463,0.703c0.211,0.294,0.439,0.569,0.681,0.828c0.05,0.053,0.092,0.112,0.143,0.164
	c0.215,0.216,0.444,0.41,0.678,0.597c0.042,0.033,0.078,0.072,0.12,0.105c0.259,0.199,0.53,0.376,0.808,0.541
	c0.027,0.016,0.051,0.037,0.078,0.052l0.008,0.004c0.013,0.008,0.027,0.015,0.04,0.023l214.657,123.933
	c0.02,0.012,0.042,0.019,0.063,0.031c0.287,0.163,0.583,0.31,0.89,0.439c0.018,0.008,0.037,0.013,0.055,0.02
	c0.278,0.113,0.565,0.207,0.857,0.289c0.08,0.023,0.158,0.042,0.238,0.061c0.239,0.059,0.483,0.107,0.731,0.144
	c0.082,0.013,0.164,0.028,0.247,0.038c0.316,0.038,0.636,0.063,0.961,0.063c0.326,0,0.646-0.025,0.961-0.063
	c0.083-0.01,0.164-0.025,0.247-0.038c0.248-0.038,0.492-0.085,0.731-0.144c0.08-0.019,0.158-0.039,0.238-0.061
	c0.292-0.082,0.579-0.176,0.857-0.289c0.018-0.008,0.037-0.013,0.055-0.02c0.307-0.127,0.604-0.276,0.89-0.439
	c0.02-0.012,0.042-0.019,0.063-0.031l214.656-123.932c0.012-0.006,0.024-0.014,0.036-0.02l0.01-0.005
	c0.036-0.021,0.067-0.047,0.102-0.069c0.269-0.161,0.532-0.332,0.784-0.524c0.051-0.039,0.094-0.084,0.142-0.124
	c0.226-0.182,0.449-0.37,0.656-0.578c0.065-0.065,0.117-0.138,0.18-0.205c0.229-0.246,0.444-0.506,0.643-0.783
	C477.417,384.446,477.579,384.213,477.719,383.968z M49.383,146.185l49.028,28.875c-2.121,13.517,3.915,27.613,16.34,35.095
	c1.293,0.779,2.621,1.454,3.969,2.046v83.802c-1.472,0.618-2.915,1.334-4.313,2.161c-7.966,4.713-13.618,12.245-15.919,21.21
	c-1.605,6.256-1.438,12.687,0.409,18.709l-49.513,28.013V146.185z M151.332,209.633c0.572-0.368,1.134-0.751,1.685-1.153
	c0.084-0.06,0.167-0.122,0.25-0.183c0.233-0.174,0.472-0.338,0.702-0.517l85.863,50.568l-82.05,46.421
	c-3.983-4.432-9.04-7.74-14.769-9.643c-0.048-0.016-0.097-0.033-0.147-0.05c-0.594-0.194-1.195-0.375-1.803-0.539
	c-0.043-0.012-0.086-0.025-0.129-0.037c-0.092-0.024-0.181-0.054-0.273-0.078c-1.233-0.316-2.473-0.557-3.714-0.737
	c-0.006-0.001-0.013-0.001-0.02-0.003c-0.675-0.097-1.35-0.171-2.024-0.229c-0.004,0-0.01-0.001-0.014-0.001v-78.399
	c5.868-0.379,11.507-2.262,16.408-5.4C151.308,209.649,151.32,209.642,151.332,209.633z M430.103,177.384L430.103,177.384
	c-4.135,2.446-8.841,3.071-13.21,2.149c-0.375-0.079-0.748-0.162-1.115-0.263c-0.258-0.071-0.513-0.154-0.767-0.236
	c-0.349-0.113-0.695-0.233-1.036-0.365c-0.248-0.096-0.493-0.199-0.736-0.306c-0.343-0.151-0.68-0.314-1.013-0.485
	c-0.223-0.115-0.445-0.231-0.664-0.355c-0.347-0.197-0.683-0.409-1.016-0.627c-0.191-0.125-0.383-0.247-0.569-0.378
	c-0.35-0.249-0.687-0.517-1.02-0.79c-0.155-0.128-0.316-0.249-0.467-0.382c-0.347-0.305-0.675-0.632-0.999-0.963
	c-0.124-0.127-0.254-0.244-0.375-0.375c-0.334-0.361-0.643-0.746-0.95-1.135c-0.096-0.122-0.201-0.233-0.293-0.358
	c-0.372-0.5-0.719-1.021-1.042-1.562c-0.014-0.023-0.03-0.043-0.044-0.067c-0.009-0.014-0.014-0.029-0.023-0.042
	c-0.329-0.558-0.624-1.131-0.889-1.713c-0.096-0.211-0.17-0.428-0.258-0.641c-0.16-0.387-0.319-0.774-0.451-1.168
	c-0.091-0.271-0.16-0.545-0.237-0.818c-0.096-0.34-0.193-0.679-0.269-1.023c-0.069-0.312-0.121-0.625-0.174-0.939
	c-0.052-0.305-0.1-0.611-0.136-0.919c-0.04-0.342-0.067-0.683-0.087-1.025c-0.017-0.279-0.027-0.558-0.031-0.839
	c-0.005-0.361-0.003-0.721,0.013-1.081c0.012-0.263,0.036-0.527,0.058-0.79c0.032-0.368,0.066-0.735,0.12-1.099
	c0.039-0.262,0.095-0.522,0.146-0.783c0.069-0.36,0.133-0.721,0.222-1.077c0.077-0.302,0.18-0.598,0.272-0.897
	c1.306-4.238,4.11-8.029,8.219-10.46c2.888-1.708,6.108-2.583,9.378-2.583c1.54,0,3.092,0.194,4.624,0.587
	c4.782,1.227,8.799,4.243,11.311,8.49C441.788,160.838,438.874,172.195,430.103,177.384z M445.627,137.427
	c-10.887-11.286-28.504-14.095-42.575-5.77c-4.733,2.8-8.55,6.562-11.363,10.887l-101.171-32.979
	c-0.561-15.733-11.655-28.823-26.433-32.418V22.086l190.569,110.025L445.627,137.427z M264.085,144.473
	c0.319-0.078,0.637-0.16,0.953-0.247c9.809-2.662,17.962-9.503,22.252-18.708l98.949,32.255c-0.041,0.379-0.05,0.76-0.078,1.139
	c-0.019,0.264-0.04,0.529-0.054,0.794c-0.024,0.459-0.044,0.918-0.05,1.378c-0.008,0.576-0.001,1.151,0.021,1.728
	c0.015,0.405,0.043,0.808,0.073,1.213c0.03,0.416,0.07,0.832,0.115,1.248c0.05,0.451,0.105,0.899,0.171,1.347
	c0.083,0.554,0.179,1.107,0.289,1.658c0.057,0.283,0.114,0.566,0.179,0.848c0.162,0.714,0.342,1.425,0.551,2.133
	c0.036,0.121,0.072,0.24,0.109,0.361l-66.265,39.026c-3.847,2.266-5.129,7.221-2.863,11.068c1.507,2.559,4.204,3.983,6.973,3.983
	c1.394,0,2.807-0.361,4.095-1.12l66.271-39.029c0.085,0.088,0.178,0.167,0.264,0.254c0.421,0.427,0.853,0.841,1.293,1.243
	c0.183,0.167,0.364,0.335,0.552,0.499c0.474,0.415,0.961,0.811,1.455,1.196c0.167,0.13,0.329,0.267,0.498,0.395
	c0.653,0.492,1.319,0.963,2.002,1.404c0.059,0.039,0.121,0.073,0.181,0.112c0.633,0.403,1.276,0.785,1.932,1.145
	c0.317,0.175,0.643,0.333,0.967,0.498c0.391,0.199,0.784,0.399,1.181,0.583c0.154,0.071,0.301,0.155,0.456,0.225L384.66,294.707
	c-9.715-1.593-19.596,1.073-27.202,7.226c-0.16,0.129-0.318,0.26-0.475,0.391c-0.368,0.308-0.734,0.619-1.091,0.944
	c-0.431,0.391-0.852,0.796-1.263,1.209c-0.11,0.112-0.225,0.217-0.334,0.33l-82.126-46.459l29.044-17.106
	c3.847-2.266,5.129-7.221,2.863-11.069c-2.266-3.847-7.221-5.13-11.069-2.863l-28.922,17.035V144.473z M255.9,417.096
	c-10.19,0-18.48-8.29-18.48-18.48c0-2.543,0.516-4.966,1.45-7.172c0.01-0.023,0.02-0.043,0.03-0.066
	c0.224-0.524,0.47-1.036,0.739-1.533c0.014-0.026,0.029-0.051,0.042-0.077c2.277-4.156,6.102-7.347,10.696-8.788
	c0.043-0.013,0.087-0.024,0.13-0.037c0.482-0.148,0.972-0.271,1.47-0.379c0.144-0.031,0.29-0.06,0.435-0.088
	c0.42-0.081,0.846-0.143,1.276-0.195c0.16-0.019,0.317-0.042,0.478-0.057c0.571-0.054,1.148-0.087,1.733-0.087
	c0.587,0,1.166,0.035,1.74,0.088c0.155,0.014,0.307,0.038,0.461,0.056c0.44,0.053,0.875,0.116,1.305,0.199
	c0.135,0.026,0.268,0.053,0.402,0.081c0.52,0.112,1.033,0.24,1.535,0.396c0.02,0.007,0.042,0.011,0.063,0.018
	c5.188,1.622,9.399,5.476,11.508,10.431c0.004,0.011,0.011,0.022,0.015,0.033c0.935,2.208,1.452,4.634,1.452,7.178
	C274.38,408.806,266.09,417.096,255.9,417.096z M116.144,337.395c-2.514-4.248-3.222-9.221-1.995-14.002
	c1.227-4.782,4.242-8.799,8.49-11.313c1.779-1.052,3.684-1.785,5.649-2.196c0.038-0.006,0.074-0.009,0.112-0.016
	c0.945-0.191,1.893-0.304,2.836-0.345c0.042-0.002,0.085-0.003,0.128-0.004c0.417-0.015,0.833-0.016,1.248-0.003
	c0.064,0.002,0.128,0.003,0.192,0.007c0.403,0.016,0.805,0.047,1.204,0.091c0.058,0.007,0.116,0.01,0.176,0.016
	c0.452,0.053,0.9,0.121,1.345,0.207c0.033,0.006,0.067,0.016,0.1,0.023c0.383,0.075,0.761,0.166,1.137,0.265
	c0.518,0.137,1.028,0.294,1.528,0.472c0.199,0.072,0.393,0.158,0.591,0.237c0.291,0.115,0.58,0.233,0.862,0.362
	c0.268,0.123,0.534,0.255,0.795,0.391c0.193,0.099,0.383,0.204,0.571,0.309c0.287,0.162,0.573,0.326,0.852,0.502
	c0.126,0.081,0.248,0.168,0.372,0.251c0.587,0.393,1.152,0.82,1.693,1.282c0.096,0.082,0.196,0.157,0.29,0.24
	c0.229,0.203,0.445,0.42,0.665,0.635c0.178,0.176,0.356,0.35,0.526,0.534c0.182,0.194,0.36,0.393,0.535,0.596
	c0.21,0.245,0.413,0.497,0.611,0.755c0.129,0.167,0.262,0.332,0.386,0.504c0.32,0.446,0.627,0.903,0.91,1.381
	c0.294,0.497,0.554,1.004,0.796,1.516c0.078,0.164,0.147,0.33,0.219,0.496c0.157,0.359,0.304,0.72,0.437,1.085
	c0.067,0.183,0.133,0.366,0.193,0.552c0.129,0.392,0.241,0.788,0.343,1.185c0.036,0.139,0.078,0.276,0.11,0.415
	c0.125,0.543,0.227,1.089,0.302,1.635c0.01,0.073,0.014,0.147,0.023,0.22c0.06,0.487,0.102,0.974,0.124,1.462
	c0.005,0.121,0.006,0.243,0.01,0.363c0.012,0.471,0.008,0.941-0.017,1.41c-0.004,0.085-0.008,0.17-0.013,0.255
	c-0.113,1.721-0.463,3.418-1.042,5.038c-0.018,0.053-0.039,0.105-0.058,0.156c-0.176,0.477-0.372,0.947-0.586,1.411
	c-0.036,0.077-0.069,0.153-0.106,0.229c-0.224,0.466-0.468,0.924-0.731,1.371c-0.028,0.046-0.052,0.095-0.08,0.142
	c-0.288,0.48-0.6,0.947-0.932,1.402c-0.087,0.119-0.184,0.232-0.275,0.348c-1.392,1.808-3.13,3.393-5.211,4.624
	c-4.248,2.514-9.221,3.222-14.003,1.995C122.676,344.659,118.657,341.644,116.144,337.395z M166.669,326.803
	c-0.001-0.047-0.001-0.095-0.002-0.142c-0.015-0.383-0.042-0.764-0.069-1.146c-0.018-0.264-0.037-0.528-0.061-0.792
	c-0.03-0.322-0.066-0.645-0.106-0.966c-0.041-0.34-0.089-0.679-0.141-1.018c-0.041-0.271-0.081-0.54-0.129-0.809
	c-0.081-0.459-0.176-0.916-0.275-1.374c-0.034-0.156-0.063-0.314-0.099-0.47c-0.086-0.371-0.188-0.738-0.287-1.107l82.417-46.628
	V364.9c-8.497,1.994-15.895,7.105-20.741,14.306l-63.643-36.744C165.799,337.532,166.851,332.163,166.669,326.803z M264.085,364.943
	v-92.592l81.973,46.376c-1.855,5.969-2.056,12.349-0.511,18.572c0.319,1.286,0.716,2.539,1.169,3.764
	c0.009,0.024,0.018,0.049,0.028,0.072c0.237,0.636,0.494,1.261,0.765,1.879l-62.826,36.272
	C279.879,372.096,272.538,366.976,264.085,364.943z M364.701,340.425c-0.199-0.251-0.398-0.503-0.582-0.762
	c-0.126-0.177-0.241-0.361-0.361-0.543c-0.274-0.415-0.529-0.84-0.766-1.272c-0.149-0.272-0.301-0.542-0.437-0.822
	c-0.108-0.221-0.201-0.447-0.299-0.672c-0.125-0.288-0.248-0.577-0.358-0.872c-0.082-0.217-0.158-0.435-0.232-0.655
	c-0.11-0.33-0.209-0.665-0.302-1.002c-0.054-0.197-0.113-0.395-0.161-0.593c-0.116-0.49-0.215-0.982-0.291-1.473
	c-0.042-0.275-0.066-0.552-0.096-0.828c-0.028-0.252-0.056-0.506-0.073-0.758c-0.022-0.324-0.031-0.65-0.036-0.975
	c-0.003-0.183-0.002-0.366,0.001-0.549c0.005-0.354,0.015-0.707,0.041-1.061c0.009-0.112,0.024-0.224,0.033-0.336
	c0.071-0.774,0.19-1.545,0.359-2.308c0.017-0.078,0.029-0.155,0.046-0.233c0.071-0.305,0.163-0.607,0.25-0.909
	c0.068-0.233,0.136-0.466,0.213-0.696c0.085-0.255,0.178-0.508,0.274-0.76c0.115-0.3,0.24-0.597,0.372-0.893
	c0.086-0.193,0.168-0.387,0.261-0.579c0.24-0.493,0.497-0.981,0.783-1.456c0.316-0.524,0.654-1.027,1.013-1.511
	c0.057-0.078,0.122-0.146,0.18-0.222c0.31-0.405,0.63-0.803,0.97-1.179c0.046-0.051,0.097-0.096,0.143-0.147
	c0.365-0.395,0.743-0.777,1.139-1.135c0.019-0.018,0.041-0.033,0.06-0.051c2.217-1.989,4.899-3.419,7.872-4.157
	c1.488-0.37,2.991-0.552,4.485-0.552c0.709,0,1.415,0.05,2.117,0.132c0.171,0.02,0.342,0.038,0.512,0.064
	c0.249,0.037,0.497,0.081,0.744,0.127c0.329,0.064,0.658,0.134,0.984,0.216c0.14,0.035,0.28,0.064,0.419,0.101
	c0.508,0.139,1.012,0.299,1.513,0.484c0.056,0.02,0.11,0.044,0.166,0.065c0.475,0.18,0.947,0.382,1.415,0.604
	c0.553,0.263,1.098,0.544,1.63,0.864c8.729,5.257,11.554,16.635,6.297,25.365c-2.546,4.229-6.587,7.212-11.378,8.401
	c-4.79,1.19-9.758,0.442-13.987-2.105C367.712,343.621,366.059,342.137,364.701,340.425z M107.09,352.024
	c4.412,4.598,10.02,7.899,16.347,9.522c2.873,0.737,5.781,1.102,8.671,1.102c6.129,0,12.169-1.641,17.583-4.842
	c1.304-0.772,2.531-1.623,3.695-2.533l68.106,39.321c-0.153,1.32-0.24,2.66-0.24,4.021c0,16.357,11.397,30.094,26.665,33.71v57.589
	L57.59,380.029L107.09,352.024z M264.085,432.278c15.167-3.689,26.463-17.378,26.463-33.663c0-1.324-0.082-2.628-0.227-3.913
	l67.132-38.759c1.213,0.971,2.492,1.874,3.846,2.689c5.467,3.293,11.592,4.981,17.813,4.981c2.801,0,5.622-0.343,8.411-1.035
	c6.846-1.7,12.871-5.358,17.465-10.511l49.421,27.961L264.085,489.914V432.278z M412.659,337.832
	c3.568-13.478-1.319-28.169-12.842-36.703l22.642-105.063c5.433-0.268,10.88-1.809,15.877-4.764l0,0
	c14.022-8.297,20.051-25.001,15.492-39.936l8.79-5.177v219.909L412.659,337.832z M255.9,92.33c10.19,0,18.48,8.29,18.48,18.48
	c0,1.156-0.12,2.283-0.324,3.38c-0.055,0.296-0.123,0.587-0.191,0.878c-0.072,0.303-0.146,0.605-0.233,0.902
	c-0.065,0.224-0.136,0.446-0.209,0.667c-0.127,0.382-0.263,0.758-0.414,1.127c-0.053,0.13-0.106,0.26-0.161,0.388
	c-0.211,0.486-0.438,0.965-0.689,1.427c-0.008,0.014-0.015,0.029-0.023,0.043c-1.979,3.631-5.144,6.527-8.968,8.17
	c-0.06,0.026-0.121,0.052-0.182,0.077c-0.456,0.19-0.922,0.358-1.395,0.512c-0.117,0.038-0.235,0.078-0.354,0.113
	c-0.426,0.128-0.859,0.236-1.297,0.334c-0.155,0.035-0.308,0.074-0.465,0.105c-0.427,0.084-0.862,0.144-1.3,0.199
	c-0.161,0.019-0.318,0.049-0.48,0.065c-0.593,0.057-1.192,0.092-1.799,0.092c-0.573,0-1.138-0.035-1.699-0.086
	c-0.157-0.014-0.313-0.034-0.47-0.053c-0.438-0.052-0.871-0.117-1.299-0.198c-0.126-0.024-0.253-0.044-0.378-0.071
	c-1.135-0.241-2.232-0.584-3.28-1.024c-0.045-0.018-0.089-0.039-0.135-0.058c-3.283-1.408-6.08-3.737-8.059-6.665c0,0,0,0,0-0.001
	c-0.31-0.458-0.596-0.935-0.864-1.422c-0.032-0.059-0.066-0.116-0.098-0.176c-1.4-2.601-2.198-5.573-2.198-8.728
	C237.42,100.62,245.71,92.33,255.9,92.33z M228.496,132.031c4.328,5.602,10.266,9.717,16.997,11.828
	c0.049,0.015,0.096,0.032,0.144,0.047c0.399,0.123,0.802,0.234,1.206,0.343c0.21,0.057,0.42,0.115,0.633,0.168
	c0.148,0.037,0.292,0.082,0.44,0.116v99.811l-83.827-49.37c0.002-0.004,0.003-0.009,0.005-0.013
	c0.055-0.121,0.107-0.243,0.161-0.363c0.212-0.474,0.414-0.951,0.604-1.43c0.036-0.091,0.069-0.181,0.105-0.273
	c0.203-0.528,0.392-1.058,0.568-1.592c0.015-0.047,0.031-0.094,0.046-0.141c1.198-3.691,1.745-7.498,1.675-11.269
	c0-0.017-0.001-0.033-0.001-0.051c-0.012-0.577-0.038-1.151-0.078-1.726c-0.009-0.119-0.018-0.237-0.027-0.357
	c-0.038-0.468-0.084-0.935-0.14-1.4c-0.022-0.18-0.043-0.36-0.068-0.54c-0.055-0.399-0.117-0.796-0.186-1.191
	c-0.038-0.224-0.074-0.448-0.116-0.673c-0.065-0.338-0.14-0.674-0.216-1.01c-0.059-0.266-0.113-0.532-0.178-0.798
	c-0.046-0.185-0.101-0.369-0.151-0.554c-0.197-0.747-0.42-1.488-0.668-2.222c-0.056-0.165-0.107-0.331-0.165-0.495
	c-0.033-0.094-0.06-0.19-0.095-0.283L228.496,132.031z M128.173,162.539c1.487-0.37,2.991-0.552,4.485-0.552
	c3.318,0,6.585,0.9,9.501,2.656c2.711,1.632,4.849,3.857,6.356,6.407c0.011,0.018,0.024,0.036,0.034,0.055
	c0.276,0.471,0.526,0.956,0.759,1.449c0.056,0.119,0.107,0.238,0.16,0.358c0.174,0.388,0.334,0.781,0.48,1.179
	c0.047,0.129,0.097,0.259,0.141,0.389c0.17,0.498,0.326,1.002,0.453,1.512c0.003,0.012,0.008,0.023,0.01,0.035
	c0.125,0.503,0.22,1.013,0.303,1.525c0.03,0.189,0.053,0.377,0.078,0.567c0.043,0.332,0.075,0.665,0.1,0.998
	c0.016,0.216,0.034,0.431,0.043,0.647c0.016,0.392,0.014,0.785,0.005,1.177c-0.008,0.308-0.027,0.617-0.05,0.925
	c-0.022,0.292-0.045,0.584-0.081,0.876c-0.031,0.257-0.07,0.512-0.112,0.767c-0.046,0.282-0.103,0.565-0.163,0.846
	c-0.05,0.232-0.094,0.465-0.153,0.695c-0.121,0.472-0.26,0.942-0.42,1.409c-0.06,0.178-0.133,0.352-0.199,0.529
	c-0.135,0.356-0.278,0.71-0.437,1.061c-0.073,0.163-0.147,0.326-0.224,0.487c-0.24,0.496-0.496,0.987-0.786,1.469
	c-0.3,0.498-0.625,0.97-0.963,1.429c-0.101,0.138-0.208,0.268-0.314,0.403c-0.253,0.324-0.514,0.64-0.785,0.943
	c-0.115,0.129-0.232,0.259-0.35,0.384c-0.314,0.332-0.639,0.651-0.973,0.956c-0.073,0.067-0.142,0.137-0.216,0.202
	c-0.88,0.775-1.823,1.459-2.818,2.046c-0.032,0.019-0.066,0.037-0.097,0.056c-0.49,0.286-0.992,0.55-1.505,0.788
	c-0.009,0.004-0.016,0.008-0.025,0.012c-2.126,0.984-4.423,1.555-6.761,1.689c-0.053,0.003-0.105,0.006-0.157,0.009
	c-0.522,0.025-1.047,0.026-1.57,0.006c-0.065-0.002-0.128-0.001-0.193-0.004c-0.575-0.027-1.148-0.079-1.721-0.16
	c-0.034-0.005-0.069-0.014-0.103-0.019c-2.344-0.346-4.66-1.146-6.813-2.443c-8.729-5.257-11.554-16.635-6.297-25.365
	C119.342,166.713,123.382,163.728,128.173,162.539z"/>
</svg>