<?xml version="1.0" encoding="iso-8859-1"?>
<!-- Uploaded to: SVG Repo, www.svgrepo.com, Generator: SVG Repo Mixer Tools -->
<svg version="1.1" id="Layer_1" xmlns="http://www.w3.org/2000/svg" xmlns:xlink="http://www.w3.org/1999/xlink" 
	 viewBox="0 0 512 512" xml:space="preserve">
<path d="M355,512H157c-35.2,0-64-28.8-64-64V64c0-35.2,28.8-64,64-64h198c35.2,0,64,28.8,64,64v384C419,483.2,390.2,512,355,512z"/>
<rect x="118" y="60.416" style="fill:#FFFFFF;" width="280" height="376.96"/>
<g>
	<circle style="fill:#CCCCCC;" cx="256" cy="30.176" r="12"/>
	<path style="fill:#CCCCCC;" d="M283.128,488.272h-54.264c-7.496,0-13.568-6.064-13.568-13.568c0-7.496,6.064-13.568,13.568-13.568
		h54.264c7.496,0,13.568,6.064,13.568,13.568C296.696,482.208,290.632,488.272,283.128,488.272z"/>
</g>
<rect x="332.504" y="134.832" style="fill:#FFD67F;" width="30.008" height="213.032"/>
<rect x="286.752" y="181.432" style="fill:#FF583E;" width="30.008" height="166.432"/>
<rect x="240.96" y="228.032" style="fill:#FFD67F;" width="30.008" height="119.832"/>
<rect x="195.24" y="267.976" style="fill:#FF583E;" width="30.008" height="79.888"/>
<rect x="149.488" y="303.904" style="fill:#FFD67F;" width="30.008" height="43.96"/>
</svg>