<?xml version="1.0" encoding="iso-8859-1"?>
<!-- Uploaded to: SVG Repo, www.svgrepo.com, Generator: SVG Repo Mixer cryptoTools -->
<svg version="1.1" id="Layer_1" xmlns="http://www.w3.org/2000/svg" xmlns:xlink="http://www.w3.org/1999/xlink"
	 viewBox="0 0 512 512" xml:space="preserve">
<path style="fill:#FFE7E5;" d="M384,140.8c-35.294,0-64-28.706-64-64s28.706-64,64-64s64,28.706,64,64S419.294,140.8,384,140.8z"/>
<path style="fill:#6FB0B6;" d="M193.263,256l-2.483-9.6c-4.378-16.956-19.669-28.8-37.18-28.8s-32.802,11.844-37.18,28.8l-2.483,9.6
	H51.2v-64c-21.171,0-38.4-17.229-38.4-38.4s17.229-38.4,38.4-38.4v-64h62.737l2.483,9.6c4.378,16.956,19.669,28.8,37.18,28.8
	s32.802-11.844,37.18-28.8l2.483-9.6H256v64c21.171,0,38.4,17.229,38.4,38.4S277.171,192,256,192v64H193.263z"/>
<path style="fill:#919CB0;" d="M346.573,499.2l-11.196-140.8h-43.511L322.116,192h123.767l26.522,145.92H404.48
	c-7.057,0-12.8,5.743-12.8,12.8v58.88c0,7.057,5.743,12.8,12.8,12.8h23.049l-6.11,76.8H346.573z"/>
<rect x="391.68" y="337.92" style="fill:#BCB0AD;" width="107.52" height="84.48"/>
<path style="fill:#FF877F;" d="M153.6,499.2c-21.171,0-38.4-17.229-38.4-38.4h-64v-62.737l9.6-2.483
	c16.956-4.378,28.8-19.669,28.8-37.18s-11.844-32.802-28.8-37.18l-9.6-2.483V256h64c0-21.171,17.229-38.4,38.4-38.4
	S192,234.829,192,256h64v62.737l-9.6,2.483c-16.956,4.378-28.8,19.669-28.8,37.18s11.844,32.802,28.8,37.18l9.6,2.483V460.8h-64
	C192,481.971,174.771,499.2,153.6,499.2z"/>
<g>
	<path style="fill:#573A32;" d="M384,153.6c42.351,0,76.8-34.449,76.8-76.8S426.351,0,384,0s-76.8,34.449-76.8,76.8
		S341.649,153.6,384,153.6z M384,25.6c28.279,0,51.2,22.921,51.2,51.2S412.279,128,384,128c-28.271,0-51.2-22.921-51.2-51.2
		S355.729,25.6,384,25.6z"/>
	<path style="fill:#573A32;" d="M486.4,325.12h-3.302L460.39,200.226c-2.219-12.177-12.817-21.026-25.19-21.026H332.8
		c-12.365,0-22.972,8.849-25.19,21.026l-25.6,140.8c-1.357,7.467,0.666,15.155,5.53,20.983c4.873,5.82,12.066,9.19,19.661,9.19
		h16.358l9.327,117.231C333.943,501.734,345.054,512,358.4,512h51.2c13.355,0,24.465-10.266,25.515-23.569l4.241-53.231H486.4
		c14.14,0,25.6-11.46,25.6-25.6v-58.88C512,336.58,500.54,325.12,486.4,325.12z M409.6,486.4h-51.2l-11.204-140.8H307.2l25.6-140.8
		h38.4v77.875c0,7.074,5.726,12.8,12.8,12.8c7.074,0,12.8-5.726,12.8-12.8V204.8h38.4l21.871,120.32H404.48
		c-14.14,0-25.6,11.46-25.6,25.6v58.88c0,14.14,11.46,25.6,25.6,25.6h9.19L409.6,486.4z M486.4,409.6h-81.92v-58.88h81.92V409.6z"/>
	<path style="fill:#573A32;" d="M307.2,153.6c0-23.825-16.35-43.878-38.4-49.579V51.2c0-7.074-5.726-12.8-12.8-12.8h-64
		c-7.074,0-12.8,5.726-12.8,12.8c0,14.123-11.477,25.6-25.6,25.6c-14.123,0-25.6-11.477-25.6-25.6c0-7.074-5.726-12.8-12.8-12.8h-64
		c-7.074,0-12.8,5.726-12.8,12.8v52.821C16.35,109.722,0,129.775,0,153.6s16.35,43.878,38.4,49.579V320
		c0,7.074,5.726,12.8,12.8,12.8c14.123,0,25.6,11.477,25.6,25.6S65.323,384,51.2,384c-7.074,0-12.8,5.726-12.8,12.8v64
		c0,7.074,5.726,12.8,12.8,12.8h52.821c5.7,22.05,25.754,38.4,49.579,38.4s43.878-16.35,49.579-38.4H256
		c7.074,0,12.8-5.726,12.8-12.8v-64c0-7.074-5.726-12.8-12.8-12.8c-14.123,0-25.6-11.477-25.6-25.6s11.477-25.6,25.6-25.6
		c7.074,0,12.8-5.726,12.8-12.8V203.179C290.85,197.478,307.2,177.425,307.2,153.6z M243.2,308.821
		c-22.05,5.7-38.4,25.754-38.4,49.579s16.35,43.878,38.4,49.579V448H192c-7.074,0-12.8,5.726-12.8,12.8
		c0,14.123-11.477,25.6-25.6,25.6c-14.123,0-25.6-11.477-25.6-25.6c0-7.074-5.726-12.8-12.8-12.8H64v-40.021
		c22.05-5.7,38.4-25.754,38.4-49.579S86.05,314.522,64,308.821V268.8h51.2c7.074,0,12.8-5.726,12.8-12.8
		c0-14.123,11.477-25.6,25.6-25.6c14.123,0,25.6,11.477,25.6,25.6c0,7.074,5.726,12.8,12.8,12.8h51.2V308.821z M256,179.2
		c-7.074,0-12.8,5.726-12.8,12.8v51.2h-40.021c-5.7-22.05-25.754-38.4-49.579-38.4s-43.878,16.35-49.579,38.4H64V192
		c0-7.074-5.726-12.8-12.8-12.8c-14.123,0-25.6-11.477-25.6-25.6c0-14.123,11.477-25.6,25.6-25.6c7.074,0,12.8-5.726,12.8-12.8V64
		h40.021c5.7,22.05,25.754,38.4,49.579,38.4s43.878-16.35,49.579-38.4H243.2v51.2c0,7.074,5.726,12.8,12.8,12.8
		c14.123,0,25.6,11.477,25.6,25.6C281.6,167.723,270.123,179.2,256,179.2z"/>
</g>
</svg>
