<?xml version="1.0" encoding="iso-8859-1"?>
<!-- Uploaded to: SVG Repo, www.svgrepo.com, Generator: SVG Repo Mixer cryptoTools -->
<svg height="800px" width="800px" version="1.1" id="Layer_1" xmlns="http://www.w3.org/2000/svg" xmlns:xlink="http://www.w3.org/1999/xlink"
	 viewBox="0 0 512 512" xml:space="preserve">
<path style="fill:#32BEA6;" d="M235.968,391.248v-119.92c-37.392-10.688-64.784-26.864-82.272-48.496
	c-17.472-21.68-26.192-47.984-26.192-78.896c0-31.28,9.856-57.52,29.616-78.848c19.76-21.264,46-33.504,78.848-36.768V0h41.488
	v28.32c30.336,3.632,54.512,14,72.416,31.072c17.952,17.072,29.408,39.936,34.336,68.512l-72.352,9.488
	c-4.464-22.512-15.872-37.808-34.384-45.808v111.888c45.808,12.4,77.024,28.48,93.568,48.24
	c16.592,19.76,24.896,45.072,24.896,75.984c0,34.544-10.432,63.648-31.328,87.296s-49.952,38.128-87.136,43.472V512h-41.488v-52.08
	c-33.04-4-59.808-16.336-80.448-36.928c-20.544-20.592-33.712-49.696-39.472-87.296l74.736-7.984
	c3.008,15.248,8.72,28.432,17.12,39.472C216.304,378.288,225.648,386.272,235.968,391.248z M235.968,90.72
	c-11.248,3.84-20.224,10.32-26.928,19.456c-6.64,9.184-9.952,19.296-9.952,30.336c0,10.112,3.008,19.504,9.136,28.224
	c6.128,8.656,15.36,15.664,27.744,21.008V90.72L235.968,90.72z M277.456,395.248c14.32-2.704,25.984-9.28,34.912-19.92
	c8.976-10.576,13.488-23.024,13.488-37.344c0-12.752-3.792-23.76-11.312-33.04c-7.568-9.232-19.92-16.336-37.088-21.312
	L277.456,395.248L277.456,395.248z"/>
</svg>
