<?xml version="1.0" encoding="iso-8859-1"?>
<!-- Uploaded to: SVG Repo, www.svgrepo.com, Generator: SVG Repo Mixer cryptoTools -->
<svg version="1.1" id="Layer_1" xmlns="http://www.w3.org/2000/svg" xmlns:xlink="http://www.w3.org/1999/xlink"
	 viewBox="0 0 512 512" xml:space="preserve">
<path d="M156.264,373.48h-46.512v-21.216h72.272v12.696L138.48,510.608h-26.04L156.264,373.48z"/>
<path d="M196.2,478.088c0-5.616,0.776-11.736,2.32-18.344h18.72v12.968c0,7.536,1.096,12.96,3.288,16.264
	c2.184,3.304,5.792,4.952,10.792,4.952c5.072,0,8.648-1.824,10.752-5.472c2.104-3.64,3.152-8.888,3.152-15.752v-30.576
	c0-3.944-0.336-7.152-1.016-9.584s-1.608-4.352-2.784-5.744s-2.544-2.336-4.128-2.832c-1.568-0.496-3.288-0.744-5.144-0.744
	c-3.464,0-6.424,0.976-8.896,2.92s-4.504,4.272-6.112,6.992H199.44v-80.8h68.016v21.216h-48v39.104
	c2.592-2.968,5.848-5.28,9.776-6.952c3.92-1.664,8.016-2.496,12.28-2.496c9.824,0,17.016,3.304,21.584,9.912
	s6.856,16.344,6.856,29.184v26.872c0,8.152-1.056,14.96-3.152,20.432c-2.104,5.464-4.88,9.848-8.344,13.16s-7.456,5.664-12,7.088
	c-4.536,1.432-9.216,2.144-14.024,2.144c-5.872,0-11.064-0.792-15.568-2.368c-4.504-1.568-8.288-3.84-11.352-6.808
	c-3.056-2.968-5.376-6.528-6.944-10.704C196.984,487.952,196.2,483.272,196.2,478.088z"/>
<path d="M313.84,420.536c-2.688,0-5.392-0.376-8.096-1.136c-2.72-0.752-5.168-2.224-7.36-4.424
	c-2.192-2.184-3.968-5.304-5.336-9.336c-1.368-4.024-2.056-9.32-2.056-15.872v-7.56c0-4.288,0.328-8.008,0.992-11.144
	c0.656-3.136,1.56-5.816,2.72-8.024c1.16-2.216,2.496-4.008,4-5.376s3.112-2.432,4.808-3.184c1.704-0.752,3.432-1.272,5.2-1.552
	s3.504-0.424,5.192-0.424c1.6,0,3.272,0.128,5.024,0.392c1.744,0.256,3.456,0.768,5.128,1.512c1.672,0.76,3.264,1.808,4.776,3.152
	s2.832,3.128,3.96,5.336c1.136,2.216,2.024,4.904,2.688,8.064c0.656,3.168,0.992,6.912,0.992,11.248v7.56
	c0,6.464-0.736,11.704-2.192,15.736s-3.312,7.16-5.552,9.376c-2.232,2.216-4.688,3.712-7.352,4.496
	C318.704,420.152,316.2,420.536,313.84,420.536z M313.976,409.296c2.968,0,5.048-1.288,6.224-3.856
	c1.168-2.568,1.768-6.56,1.768-11.984v-13.72c0-5.472-0.592-9.504-1.768-12.096s-3.256-3.888-6.224-3.888
	c-3.112,0-5.288,1.296-6.536,3.888s-1.872,6.624-1.872,12.096v13.72c0,5.424,0.624,9.416,1.872,11.984
	S310.872,409.296,313.976,409.296z M356.696,353.992h12.8l-32.464,122.136h-12.864L356.696,353.992z M356.84,438.848
	c0-6.456,0.72-11.632,2.16-15.512c1.44-3.888,3.272-6.88,5.512-8.984c2.232-2.104,4.704-3.496,7.392-4.168
	c2.688-0.688,5.28-1.024,7.784-1.024c1.6,0,3.272,0.128,5.016,0.384c1.744,0.264,3.456,0.776,5.136,1.52
	c1.672,0.76,3.256,1.808,4.776,3.152c1.504,1.344,2.832,3.128,3.96,5.336c1.128,2.216,2.024,4.904,2.688,8.064
	c0.656,3.168,0.984,6.904,0.984,11.24v7.568c0,4.336-0.344,8.112-1.024,11.312c-0.688,3.208-1.6,5.944-2.76,8.2
	c-1.16,2.264-2.488,4.136-4,5.592c-1.504,1.464-3.096,2.616-4.776,3.464c-1.672,0.848-3.384,1.432-5.128,1.736
	s-3.392,0.464-4.944,0.464c-1.8,0-3.6-0.16-5.416-0.464s-3.56-0.856-5.232-1.664c-1.672-0.8-3.248-1.928-4.736-3.392
	s-2.776-3.328-3.856-5.584c-1.088-2.264-1.944-5.016-2.576-8.24c-0.64-3.224-0.952-7.04-0.952-11.424v-7.576H356.84z
	 M371.328,450.104c0,5.424,0.624,9.416,1.872,11.984s3.432,3.848,6.544,3.848c2.968,0,5.04-1.28,6.216-3.848
	s1.776-6.56,1.776-11.984v-13.72c0-5.472-0.592-9.504-1.776-12.096s-3.248-3.888-6.216-3.888c-3.12,0-5.296,1.296-6.544,3.888
	s-1.872,6.624-1.872,12.096V450.104z"/>
<rect x="121.784" y="195.824" style="fill:#E21B1B;" width="36.96" height="85.664"/>
<rect x="181.84" y="146.864" width="36.96" height="134.632"/>
<rect x="241.912" y="91.792" style="fill:#E21B1B;" width="36.96" height="189.696"/>
<rect x="302" y="36.72" width="36.96" height="244.768"/>
<rect x="362.056" style="fill:#E21B1B;" width="36.96" height="281.52"/>
</svg>
