<?xml version="1.0" encoding="iso-8859-1"?>
<!-- Uploaded to: SVG Repo, www.svgrepo.com, Generator: SVG Repo Mixer Tools -->
<svg version="1.1" id="Layer_1" xmlns="http://www.w3.org/2000/svg" xmlns:xlink="http://www.w3.org/1999/xlink" 
	 viewBox="0 0 512 512" xml:space="preserve">
<rect y="67.484" style="fill:#CCCCCC;" width="512" height="368.08"/>
<rect x="16" y="83.532" style="fill:#F2F2F2;" width="480" height="336"/>
<path d="M512,67.484v-25.44c0-15.816-12.936-28.752-28.752-28.752h-368.24H28.752C12.936,13.292,0,26.228,0,42.044v25.432h512
	V67.484z"/>
<g style="opacity:0.25;">
	<path style="fill:#FFFFFF;" d="M147.032,13.292h-32.024H28.752C12.936,13.292,0,26.228,0,42.044v25.432h115.888L147.032,13.292z"/>
</g>
<circle style="fill:#D80E47;" cx="40.536" cy="40.388" r="8.184"/>
<circle style="fill:#05C3D6;" cx="65.096" cy="40.388" r="8.184"/>
<g>
	<circle style="fill:#FFFFFF;" cx="89.648" cy="40.388" r="8.184"/>
	<path style="fill:#FFFFFF;" d="M428.256,54.764H170.88c-7.904,0-14.376-6.472-14.376-14.376l0,0
		c0-7.904,6.472-14.376,14.376-14.376h257.376c7.904,0,14.376,6.472,14.376,14.376l0,0C442.632,48.292,436.16,54.764,428.256,54.764
		z"/>
</g>
<path d="M180.576,33.828l1.968,7.56c0.432,1.672,0.832,3.2,1.112,4.752h0.096c0.336-1.512,0.832-3.112,1.32-4.72l2.432-7.592h2.28
	l2.304,7.456c0.552,1.784,0.984,3.344,1.32,4.856h0.096c0.24-1.512,0.648-3.08,1.144-4.832l2.12-7.488h2.68l-4.8,14.888h-2.464
	l-2.288-7.096c-0.52-1.656-0.952-3.144-1.32-4.888h-0.064c-0.368,1.784-0.832,3.328-1.352,4.92l-2.4,7.08h-2.464L177.8,33.836h2.776
	V33.828z"/>
<path d="M203.544,33.828l1.968,7.56c0.432,1.672,0.832,3.2,1.112,4.752h0.096c0.336-1.512,0.832-3.112,1.32-4.72l2.432-7.592h2.28
	l2.304,7.456c0.552,1.784,0.984,3.344,1.32,4.856h0.096c0.24-1.512,0.648-3.08,1.144-4.832l2.12-7.488h2.68l-4.8,14.888h-2.464
	l-2.288-7.096c-0.52-1.656-0.952-3.144-1.32-4.888h-0.064c-0.368,1.784-0.832,3.328-1.352,4.92l-2.4,7.08h-2.464l-4.496-14.888
	h2.776V33.828z"/>
<path d="M226.512,33.828l1.968,7.56c0.432,1.672,0.832,3.2,1.112,4.752h0.096c0.336-1.512,0.832-3.112,1.32-4.72l2.432-7.592h2.28
	l2.304,7.456c0.552,1.784,0.984,3.344,1.32,4.856h0.096c0.24-1.512,0.648-3.08,1.144-4.832l2.12-7.488h2.68l-4.8,14.888h-2.464
	l-2.288-7.096c-0.52-1.656-0.952-3.144-1.32-4.888h-0.064c-0.368,1.784-0.832,3.328-1.352,4.92l-2.4,7.08h-2.456l-4.496-14.888
	h2.768V33.828z"/>
<path d="M246.192,47.124c0-1.144,0.768-1.936,1.84-1.936s1.816,0.8,1.816,1.936c0,1.112-0.704,1.936-1.84,1.936
	C246.928,49.06,246.192,48.236,246.192,47.124z"/>
<g>
	<rect x="461.328" y="38.756" style="fill:#FFFFFF;" width="23" height="4"/>
	<polygon style="fill:#FFFFFF;" points="474.592,52.684 471.752,49.86 480.856,40.756 471.752,31.652 474.592,28.828 
		486.512,40.756 	"/>
</g>
<polygon style="fill:#C9C9C9;" points="429.824,35.74 422.168,45.644 414.512,35.74 "/>
<path style="fill:#FFFFFF;" d="M492,87.532v328H20v-328L492,87.532 M496,83.532H16v336h480V83.532L496,83.532z"/>
<polygon style="fill:#05C3D6;" points="198.016,432.756 198.016,173.98 81.384,227.452 81.384,498.708 "/>
<polygon style="fill:#00B2BF;" points="307,236.388 307,493.308 198.016,432.756 198.016,173.98 "/>
<polygon style="fill:#05C3D6;" points="414.312,167.276 307,236.388 307,493.308 414.312,429.588 "/>
<path style="fill:#D80E47;" d="M360.656,333.412l-8.56-11.304c-6.296-8.232-61.4-81.8-61.4-118.448
	c0-43.968,27.448-72.376,69.96-72.376s69.96,28.416,69.96,72.376c0,36.592-55.104,110.16-61.352,118.448L360.656,333.412z"/>
<circle style="fill:#FFFFFF;" cx="360.64" cy="204.148" r="22.656"/>
</svg>